<svg width="47" height="45" viewBox="0 0 47 45" fill="none" xmlns="http://www.w3.org/2000/svg">
<rect y="0.554779" width="46.0952" height="44" rx="6" fill="#0B238F"/>
<rect y="0.554779" width="46.0952" height="44" rx="6" fill="black" fill-opacity="0.2"/>
<path d="M30.0833 10.5131C30.0833 10.3253 30.0087 10.1451 29.8759 10.0122C29.743 9.87941 29.5629 9.80478 29.375 9.80478H25.8333C24.0499 9.71594 22.3038 10.3366 20.9766 11.5311C19.6494 12.7256 18.8489 14.3969 18.75 16.1798V20.0048H15.2083C15.0205 20.0048 14.8403 20.0794 14.7075 20.2122C14.5746 20.3451 14.5 20.5253 14.5 20.7131V24.3964C14.5 24.5843 14.5746 24.7645 14.7075 24.8973C14.8403 25.0302 15.0205 25.1048 15.2083 25.1048H18.75V34.5964C18.75 34.7843 18.8246 34.9645 18.9575 35.0973C19.0903 35.2302 19.2705 35.3048 19.4583 35.3048H23.7083C23.8962 35.3048 24.0764 35.2302 24.2092 35.0973C24.342 34.9645 24.4167 34.7843 24.4167 34.5964V25.1048H28.1283C28.2859 25.107 28.4396 25.0567 28.5654 24.9618C28.6911 24.8669 28.7816 24.7327 28.8225 24.5806L29.8425 20.8973C29.8707 20.7926 29.8745 20.6829 29.8536 20.5765C29.8327 20.4702 29.7876 20.37 29.722 20.2838C29.6563 20.1976 29.5717 20.1276 29.4747 20.0792C29.3777 20.0309 29.2709 20.0054 29.1625 20.0048H24.4167V16.1798C24.4519 15.8291 24.6166 15.5042 24.8785 15.2684C25.1405 15.0327 25.4809 14.903 25.8333 14.9048H29.375C29.5629 14.9048 29.743 14.8302 29.8759 14.6973C30.0087 14.5645 30.0833 14.3843 30.0833 14.1964V10.5131Z" fill="white"/>
</svg>
