<svg width="47" height="45" viewBox="0 0 47 45" fill="none" xmlns="http://www.w3.org/2000/svg">
<rect x="1.18896" y="1.05478" width="45.0952" height="43" rx="5.5" stroke="#0B238F"/>
<rect x="1.18896" y="1.05478" width="45.0952" height="43" rx="5.5" stroke="black" stroke-opacity="0.2"/>
<path d="M22.8797 17.5952C25.1824 17.5952 27.0616 19.4744 27.0616 21.7772C27.0616 24.0799 25.1824 25.9591 22.8797 25.9591C20.577 25.9591 18.6978 24.0799 18.6978 21.7772C18.6978 19.4744 20.577 17.5952 22.8797 17.5952ZM10.3371 21.7772C10.3371 20.0454 10.3214 18.3294 10.4187 16.6007C10.5159 14.5929 10.974 12.811 12.4422 11.3428C13.9136 9.87141 15.6924 9.41651 17.7002 9.31926C19.4319 9.222 21.148 9.23769 22.8766 9.23769C24.6083 9.23769 26.3244 9.222 28.053 9.31926C30.0608 9.41651 31.8428 9.87454 33.311 11.3428C34.7823 12.8141 35.2372 14.5929 35.3345 16.6007C35.4317 18.3325 35.4161 20.0485 35.4161 21.7772C35.4161 23.5058 35.4317 25.225 35.3345 26.9536C35.2372 28.9614 34.7792 30.7433 33.311 32.2116C31.8396 33.6829 30.0608 34.1378 28.053 34.2351C26.3213 34.3323 24.6052 34.3166 22.8766 34.3166C21.1448 34.3166 19.4288 34.3323 17.7002 34.2351C15.6924 34.1378 13.9104 33.6798 12.4422 32.2116C10.9708 30.7402 10.5159 28.9614 10.4187 26.9536C10.3183 25.225 10.3371 23.5089 10.3371 21.7772ZM22.8797 28.2116C26.4405 28.2116 29.3142 25.3379 29.3142 21.7772C29.3142 18.2164 26.4405 15.3427 22.8797 15.3427C19.319 15.3427 16.4453 18.2164 16.4453 21.7772C16.4453 25.3379 19.319 28.2116 22.8797 28.2116ZM16.1818 16.5819C17.0131 16.5819 17.6845 15.9106 17.6845 15.0792C17.6845 14.2478 17.0131 13.5765 16.1818 13.5765C15.3504 13.5765 14.679 14.2478 14.679 15.0792C14.6788 15.2766 14.7175 15.4721 14.7929 15.6546C14.8683 15.837 14.979 16.0027 15.1186 16.1423C15.2582 16.2819 15.424 16.3926 15.6064 16.468C15.7888 16.5435 15.9844 16.5822 16.1818 16.5819Z" fill="#0B238F"/>
<path d="M22.8797 17.5952C25.1824 17.5952 27.0616 19.4744 27.0616 21.7772C27.0616 24.0799 25.1824 25.9591 22.8797 25.9591C20.577 25.9591 18.6978 24.0799 18.6978 21.7772C18.6978 19.4744 20.577 17.5952 22.8797 17.5952ZM10.3371 21.7772C10.3371 20.0454 10.3214 18.3294 10.4187 16.6007C10.5159 14.5929 10.974 12.811 12.4422 11.3428C13.9136 9.87141 15.6924 9.41651 17.7002 9.31926C19.4319 9.222 21.148 9.23769 22.8766 9.23769C24.6083 9.23769 26.3244 9.222 28.053 9.31926C30.0608 9.41651 31.8428 9.87454 33.311 11.3428C34.7823 12.8141 35.2372 14.5929 35.3345 16.6007C35.4317 18.3325 35.4161 20.0485 35.4161 21.7772C35.4161 23.5058 35.4317 25.225 35.3345 26.9536C35.2372 28.9614 34.7792 30.7433 33.311 32.2116C31.8396 33.6829 30.0608 34.1378 28.053 34.2351C26.3213 34.3323 24.6052 34.3166 22.8766 34.3166C21.1448 34.3166 19.4288 34.3323 17.7002 34.2351C15.6924 34.1378 13.9104 33.6798 12.4422 32.2116C10.9708 30.7402 10.5159 28.9614 10.4187 26.9536C10.3183 25.225 10.3371 23.5089 10.3371 21.7772ZM22.8797 28.2116C26.4405 28.2116 29.3142 25.3379 29.3142 21.7772C29.3142 18.2164 26.4405 15.3427 22.8797 15.3427C19.319 15.3427 16.4453 18.2164 16.4453 21.7772C16.4453 25.3379 19.319 28.2116 22.8797 28.2116ZM16.1818 16.5819C17.0131 16.5819 17.6845 15.9106 17.6845 15.0792C17.6845 14.2478 17.0131 13.5765 16.1818 13.5765C15.3504 13.5765 14.679 14.2478 14.679 15.0792C14.6788 15.2766 14.7175 15.4721 14.7929 15.6546C14.8683 15.837 14.979 16.0027 15.1186 16.1423C15.2582 16.2819 15.424 16.3926 15.6064 16.468C15.7888 16.5435 15.9844 16.5822 16.1818 16.5819Z" fill="black" fill-opacity="0.2"/>
</svg>
