<svg width="47" height="45" viewBox="0 0 47 45" fill="none" xmlns="http://www.w3.org/2000/svg">
<rect x="1.03369" y="1.05478" width="45.0952" height="43" rx="5.5" stroke="#0B238F"/>
<rect x="1.03369" y="1.05478" width="45.0952" height="43" rx="5.5" stroke="black" stroke-opacity="0.2"/>
<g clip-path="url(#clip0)">
<path d="M17.3532 18.5975H12.3344C12.1116 18.5975 11.9312 18.7781 11.9312 19.0008V35.124C11.9312 35.3467 12.1116 35.5272 12.3344 35.5272H17.3532C17.5759 35.5272 17.7564 35.3467 17.7564 35.124V19.0008C17.7564 18.7781 17.5759 18.5975 17.3532 18.5975Z" fill="#0B238F"/>
<path d="M17.3532 18.5975H12.3344C12.1116 18.5975 11.9312 18.7781 11.9312 19.0008V35.124C11.9312 35.3467 12.1116 35.5272 12.3344 35.5272H17.3532C17.5759 35.5272 17.7564 35.3467 17.7564 35.124V19.0008C17.7564 18.7781 17.5759 18.5975 17.3532 18.5975Z" fill="black" fill-opacity="0.2"/>
<path d="M14.8455 10.5823C13.0193 10.5823 11.5337 12.0663 11.5337 13.8904C11.5337 15.7153 13.0193 17.1999 14.8455 17.1999C16.6701 17.1999 18.1546 15.7153 18.1546 13.8904C18.1547 12.0663 16.6701 10.5823 14.8455 10.5823Z" fill="#0B238F"/>
<path d="M14.8455 10.5823C13.0193 10.5823 11.5337 12.0663 11.5337 13.8904C11.5337 15.7153 13.0193 17.1999 14.8455 17.1999C16.6701 17.1999 18.1546 15.7153 18.1546 13.8904C18.1547 12.0663 16.6701 10.5823 14.8455 10.5823Z" fill="black" fill-opacity="0.2"/>
<path d="M30.1191 18.1968C28.1034 18.1968 26.6133 19.0633 25.7095 20.0479V19.0008C25.7095 18.7781 25.529 18.5975 25.3063 18.5975H20.4999C20.2772 18.5975 20.0967 18.7781 20.0967 19.0008V35.124C20.0967 35.3467 20.2772 35.5272 20.4999 35.5272H25.5077C25.7305 35.5272 25.911 35.3467 25.911 35.124V27.1467C25.911 24.4586 26.6411 23.4113 28.515 23.4113C30.5558 23.4113 30.718 25.0902 30.718 27.285V35.1241C30.718 35.3468 30.8985 35.5273 31.1212 35.5273H36.1309C36.3536 35.5273 36.5341 35.3468 36.5341 35.1241V26.2802C36.5341 22.283 35.7719 18.1968 30.1191 18.1968Z" fill="#0B238F"/>
<path d="M30.1191 18.1968C28.1034 18.1968 26.6133 19.0633 25.7095 20.0479V19.0008C25.7095 18.7781 25.529 18.5975 25.3063 18.5975H20.4999C20.2772 18.5975 20.0967 18.7781 20.0967 19.0008V35.124C20.0967 35.3467 20.2772 35.5272 20.4999 35.5272H25.5077C25.7305 35.5272 25.911 35.3467 25.911 35.124V27.1467C25.911 24.4586 26.6411 23.4113 28.515 23.4113C30.5558 23.4113 30.718 25.0902 30.718 27.285V35.1241C30.718 35.3468 30.8985 35.5273 31.1212 35.5273H36.1309C36.3536 35.5273 36.5341 35.3468 36.5341 35.1241V26.2802C36.5341 22.283 35.7719 18.1968 30.1191 18.1968Z" fill="black" fill-opacity="0.2"/>
</g>
<defs>
<clipPath id="clip0">
<rect width="25" height="25" fill="white" transform="translate(11.5337 10.5548)"/>
</clipPath>
</defs>
</svg>
