<svg width="47" height="45" viewBox="0 0 47 45" fill="none" xmlns="http://www.w3.org/2000/svg">
<rect x="1.34473" y="1.05478" width="45.0952" height="43" rx="5.5" stroke="#0B238F"/>
<rect x="1.34473" y="1.05478" width="45.0952" height="43" rx="5.5" stroke="black" stroke-opacity="0.2"/>
<path d="M36.9395 12.3307C35.896 12.8393 34.7603 13.2053 33.5906 13.3479C34.805 12.5327 35.7145 11.2449 36.1483 9.7261C35.0087 10.492 33.7602 11.0291 32.4583 11.3135C31.9142 10.6563 31.2561 10.1327 30.525 9.77544C29.7939 9.41815 29.0056 9.23478 28.209 9.23677C24.9863 9.23677 22.3944 12.1881 22.3944 15.8099C22.3944 16.3185 22.449 16.8271 22.5376 17.3164C17.712 17.0313 13.4081 14.4267 10.5468 10.4389C10.0255 11.445 9.75227 12.5905 9.75563 13.7563C9.75563 16.0372 10.7821 18.0485 12.3475 19.2313C11.425 19.1903 10.5241 18.9038 9.71812 18.3952V18.4761C9.71812 21.6702 11.7166 24.3172 14.3801 24.926C13.88 25.0727 13.3655 25.1478 12.8488 25.1494C12.4703 25.1494 12.1122 25.1071 11.7507 25.0493C12.4873 27.6539 14.6324 29.5457 17.1868 29.6073C15.1883 31.3758 12.6851 32.4161 9.96708 32.4161C9.4794 32.4161 9.02923 32.3968 8.56201 32.3352C11.1402 34.2039 14.1993 35.2827 17.4937 35.2827C28.1886 35.2827 34.0407 25.2727 34.0407 16.5843C34.0407 16.2992 34.0407 16.0141 34.0237 15.729C35.1559 14.7927 36.1483 13.633 36.9395 12.3307Z" fill="#0B238F"/>
<path d="M36.9395 12.3307C35.896 12.8393 34.7603 13.2053 33.5906 13.3479C34.805 12.5327 35.7145 11.2449 36.1483 9.7261C35.0087 10.492 33.7602 11.0291 32.4583 11.3135C31.9142 10.6563 31.2561 10.1327 30.525 9.77544C29.7939 9.41815 29.0056 9.23478 28.209 9.23677C24.9863 9.23677 22.3944 12.1881 22.3944 15.8099C22.3944 16.3185 22.449 16.8271 22.5376 17.3164C17.712 17.0313 13.4081 14.4267 10.5468 10.4389C10.0255 11.445 9.75227 12.5905 9.75563 13.7563C9.75563 16.0372 10.7821 18.0485 12.3475 19.2313C11.425 19.1903 10.5241 18.9038 9.71812 18.3952V18.4761C9.71812 21.6702 11.7166 24.3172 14.3801 24.926C13.88 25.0727 13.3655 25.1478 12.8488 25.1494C12.4703 25.1494 12.1122 25.1071 11.7507 25.0493C12.4873 27.6539 14.6324 29.5457 17.1868 29.6073C15.1883 31.3758 12.6851 32.4161 9.96708 32.4161C9.4794 32.4161 9.02923 32.3968 8.56201 32.3352C11.1402 34.2039 14.1993 35.2827 17.4937 35.2827C28.1886 35.2827 34.0407 25.2727 34.0407 16.5843C34.0407 16.2992 34.0407 16.0141 34.0237 15.729C35.1559 14.7927 36.1483 13.633 36.9395 12.3307Z" fill="black" fill-opacity="0.2"/>
</svg>
