<svg width="524" height="347" viewBox="0 0 524 347" fill="none" xmlns="http://www.w3.org/2000/svg">
<path fill-rule="evenodd" clip-rule="evenodd" d="M75.9819 60.8528C84.6833 42.5815 89.034 28.336 89.034 18.1165C89.034 12.8519 86.2372 8.5163 80.6434 5.10979C75.0496 1.70326 70.2328 0 66.1928 0C62.1529 0 59.6668 0.309689 58.7345 0.929066C58.4237 1.23874 58.113 1.70326 57.8022 2.32262C57.4914 2.63232 57.1807 3.09685 56.8699 3.71621C56.8699 4.02589 56.7145 4.64525 56.4038 5.57431C56.4038 6.19367 56.2484 6.81303 55.9376 7.43241C55.9376 7.74209 55.7822 8.36146 55.4715 9.29051C55.4715 9.90987 55.1607 12.697 54.5392 17.652C53.9177 22.6069 52.5192 27.407 50.3439 32.0522C39.4671 54.3494 34.0287 71.6917 34.0287 84.079C34.0287 96.4663 37.9133 102.66 45.6824 102.66C48.1685 102.66 50.0331 101.731 51.2762 99.8728C59.0453 91.8211 67.2805 78.8144 75.9819 60.8528ZM100.688 216.469C99.4447 216.469 97.1139 219.101 93.6955 224.365C68.5236 264.005 52.83 283.825 46.6147 283.825C43.8178 283.825 42.4194 281.192 42.4194 275.928C42.4194 270.663 45.3716 250.379 51.2762 215.075C55.9376 187.513 58.2684 168.777 58.2684 158.867C58.5791 148.958 56.4038 141.99 51.7423 137.964C47.3916 133.938 42.264 131.925 36.3595 131.925C30.4549 131.925 23.9289 134.867 16.7813 140.751C14.6059 142.609 12.586 144.158 10.7214 145.396C9.16755 146.635 7.45835 148.183 5.59376 150.042C4.03994 151.59 2.6415 153.293 1.39844 155.151C0.466147 156.7 0 158.248 0 159.797C0 161.345 2.48612 165.99 7.45835 173.732C12.4306 181.165 14.9167 187.358 14.9167 192.313C14.9167 196.958 13.829 206.249 11.6537 220.185C9.47832 234.12 8.39064 247.901 8.39064 261.527C8.39064 275.154 10.566 287.851 14.9167 299.618C19.5782 311.386 24.2396 320.987 28.9011 328.419C31.698 333.684 34.8056 337.555 38.224 340.032C41.9532 342.2 46.4593 343.284 51.7423 343.284C57.3361 343.284 63.396 340.806 69.922 335.851C81.4203 326.871 90.1217 315.103 96.0263 300.548C102.242 285.683 105.349 271.902 105.349 259.205C105.349 246.198 104.883 235.824 103.951 228.082C103.329 220.34 102.242 216.469 100.688 216.469ZM257.422 252.701C257.422 239.695 256.335 233.191 254.159 233.191C253.538 233.191 250.896 234.895 246.235 238.301C238.466 245.424 225.88 256.418 208.477 271.282C191.074 286.147 181.13 293.58 178.643 293.58C176.779 293.58 175.847 292.341 175.847 289.863C175.847 287.386 179.265 273.605 186.102 248.521C193.249 223.127 197.445 208.572 198.688 204.855C200.242 200.83 202.417 197.733 205.214 195.565C206.146 194.636 206.923 192.778 207.545 189.991C208.477 187.203 208.943 182.403 208.943 175.59C208.943 168.777 207.078 163.513 203.349 159.797C192.473 149.887 184.237 144.932 178.643 144.932C173.36 144.932 168.388 146.635 163.727 150.042C159.376 153.448 156.735 155.151 155.802 155.151C153.627 155.151 152.228 153.293 151.607 149.577C149.742 140.286 145.858 134.093 139.953 130.996C134.049 127.589 130.32 125.886 128.766 125.886C125.658 125.886 123.327 128.673 121.774 134.248C120.841 137.035 117.889 142.609 112.917 150.971C107.945 159.022 105.458 165.061 105.458 169.087C105.458 172.803 107.323 180.081 111.052 190.92C114.781 201.759 117.734 208.881 119.909 212.288C122.395 215.385 125.347 216.933 128.766 216.933C132.495 216.933 135.913 215.694 139.021 213.217C146.79 206.404 153.005 200.055 157.667 194.171C156.735 197.578 154.404 205.475 150.675 217.862C146.946 230.249 144.149 240.779 142.284 249.45C140.73 257.811 139.953 266.947 139.953 276.857C139.953 286.457 142.906 296.677 148.81 307.515C148.81 307.825 149.898 309.993 152.073 314.019C154.248 318.045 155.647 320.522 156.268 321.451C156.89 322.38 158.133 324.548 159.998 327.954C162.173 331.051 163.882 333.219 165.125 334.458C166.679 335.387 168.544 336.935 170.719 339.103C173.205 340.961 175.691 342.2 178.177 342.819C180.663 343.439 184.393 343.748 189.365 343.748C194.648 343.748 201.485 340.806 209.875 334.922C212.672 332.755 218.111 326.871 226.19 317.27C234.581 307.361 240.641 298.689 244.37 291.257C253.072 278.25 257.422 265.398 257.422 252.701ZM355.612 216.469C354.369 216.469 352.038 219.101 348.62 224.365C323.448 264.005 307.754 283.825 301.539 283.825C298.742 283.825 297.343 281.192 297.343 275.928C297.343 270.663 300.296 250.379 306.2 215.075C310.862 187.513 313.192 168.777 313.192 158.867C313.503 148.958 311.328 141.99 306.666 137.964C302.316 133.938 297.188 131.925 291.283 131.925C285.379 131.925 278.853 134.867 271.705 140.751C269.53 142.609 267.51 144.158 265.645 145.396C264.092 146.635 262.382 148.183 260.518 150.042C258.964 151.59 257.566 153.293 256.322 155.151C255.39 156.7 254.924 158.248 254.924 159.797C254.924 161.345 257.41 165.99 262.382 173.732C267.355 181.165 269.841 187.358 269.841 192.313C269.841 196.958 268.753 206.249 266.578 220.185C264.402 234.12 263.315 247.901 263.315 261.527C263.315 275.154 265.49 287.851 269.841 299.618C274.502 311.386 279.164 320.987 283.825 328.419C286.622 333.684 289.73 337.555 293.148 340.032C296.877 342.2 301.383 343.284 306.666 343.284C312.26 343.284 318.32 340.806 324.846 335.851C336.344 326.871 345.046 315.103 350.95 300.548C357.166 285.683 360.273 271.902 360.273 259.205C360.273 246.198 359.807 235.824 358.875 228.082C358.253 220.34 357.166 216.469 355.612 216.469ZM521.669 274.07C523.223 262.921 524 249.76 524 234.585C524 230.249 522.602 228.082 519.805 228.082C516.076 228.082 509.083 234.275 498.828 246.663C488.884 259.05 482.668 265.244 480.182 265.244C478.939 265.244 478.318 264.469 478.318 262.921C478.318 261.063 478.939 253.785 480.182 241.088C481.736 228.082 483.445 216.159 485.31 205.32C487.174 194.481 488.107 185.345 488.107 177.913C488.107 156.235 481.425 141.99 468.062 135.177C462.158 131.77 455.321 130.067 447.552 130.067C439.783 130.067 432.48 135.177 425.643 145.396C419.117 155.306 414.145 165.216 410.726 175.126C407.308 185.036 404.666 189.991 402.802 189.991C400.937 189.991 399.694 186.894 399.073 180.7C398.762 174.506 398.607 167.693 398.607 160.261C398.607 152.519 397.985 145.706 396.742 139.822C395.499 133.628 393.479 130.531 390.682 130.531C385.71 130.531 381.514 152.054 378.096 195.1C377.785 202.223 376.542 215.075 374.367 233.656C372.502 252.237 371.57 266.792 371.57 277.321C371.57 302.096 379.961 321.606 396.742 335.851C401.093 339.258 404.2 340.961 406.065 340.961C410.105 340.961 412.125 337.09 412.125 329.348C413.989 307.051 415.699 289.709 417.252 277.321C418.806 264.934 422.069 249.76 427.041 231.798C432.014 213.527 438.54 197.268 446.62 183.023C447.863 180.545 448.95 179.307 449.883 179.307C451.126 179.307 451.747 181.165 451.747 184.881C451.747 188.287 448.95 205.784 443.357 237.372C439.317 258.431 437.297 271.902 437.297 277.786C437.297 297.606 446.464 318.509 464.799 340.497C468.529 344.832 472.413 347 476.453 347C485.776 347 495.254 337.71 504.888 319.129C514.522 300.238 520.115 285.218 521.669 274.07ZM352.407 52.0268C352.407 80.7604 329.032 104.054 300.199 104.054C271.365 104.054 247.99 80.7604 247.99 52.0268C247.99 23.2932 271.365 2.83523e-05 300.199 2.83523e-05C329.032 2.83523e-05 352.407 23.2932 352.407 52.0268ZM286.423 47.5145C283.93 48.0324 280.379 47.7175 277.839 47.3621C276.727 47.2063 275.664 46.8056 274.727 46.1892C273.791 45.5728 273.004 44.7561 272.423 43.7985C269.328 38.731 269.637 35.4802 270.442 33.6454C271.498 31.2381 273.231 27.7573 275.494 24.843C277.683 22.0247 279.85 20.3926 281.934 19.9938C282.89 19.8104 283.817 19.6008 284.713 19.398C288.304 18.5858 291.14 17.9446 292.267 19.6933C292.502 20.0569 292.751 20.4784 293.014 20.9248L293.023 20.9399C294.247 23.0113 295.77 25.5887 297.971 26.1467C298.959 26.3967 299.976 26.2143 300.995 25.6042C304.789 23.3338 311.876 22.6822 313.228 24.4798C313.587 24.9576 314.136 26.3163 314.773 27.89L314.774 27.8934C317.01 33.4195 320.75 42.6673 327.252 42.9762C327.355 42.981 327.458 42.9624 327.553 42.9218C328.018 42.7246 329.499 42.2634 330.183 42.714C330.286 42.7816 330.598 42.9875 330.598 43.8148C330.598 44.809 328.922 46.299 327.301 47.74C324.426 50.2963 320.848 53.4779 321.471 57.5852C322.386 63.6089 321.641 70.3922 317.843 71.0512C315.244 71.5021 314.965 73.2925 314.718 74.8719C314.458 76.5415 314.188 78.268 311.722 79.6738C311.629 79.727 311.549 79.8017 311.49 79.8915C311.467 79.9256 309.217 83.3368 307.485 84.471C306.584 85.0611 304.947 85.3382 302.876 85.2528C302.435 85.2369 302.005 85.1086 301.628 84.8803C301.251 84.652 300.939 84.3312 300.722 83.9485C299.611 81.9978 297.761 78.3366 297.857 75.7326C297.922 73.9335 297.446 72.7478 296.986 71.6013C296.388 70.1125 295.823 68.706 296.549 65.811C297.349 62.6196 296.51 61.4162 295.623 60.143C294.931 59.1506 294.145 58.0241 293.902 55.519C293.511 51.4855 292.684 49.2807 291.137 48.1466C290.37 47.5836 289.43 47.3039 288.29 47.3039C287.662 47.3103 287.036 47.3809 286.423 47.5145ZM284.407 21.3783C284.127 21.4324 283.85 21.5028 283.579 21.5892C283.492 21.6156 283.412 21.6587 283.343 21.7162C283.273 21.7737 283.216 21.8443 283.174 21.924C283.132 22.0036 283.107 22.0908 283.099 22.1804C283.091 22.2701 283.101 22.3603 283.128 22.4461C283.156 22.5318 283.2 22.6113 283.258 22.6799C283.316 22.7485 283.388 22.8049 283.468 22.8458C283.549 22.8867 283.636 22.9114 283.726 22.9183C283.816 22.9252 283.907 22.9142 283.993 22.886C284.213 22.8158 284.438 22.7586 284.665 22.7147C284.843 22.6806 285 22.5775 285.102 22.428C285.203 22.2786 285.241 22.095 285.207 21.9178C285.172 21.7406 285.069 21.5842 284.919 21.483C284.769 21.3818 284.585 21.3442 284.407 21.3783ZM280.749 23.0854C277.705 25.3392 275.22 29.2856 273.672 32.1992C273.587 32.3587 273.57 32.5452 273.623 32.7177C273.676 32.8902 273.796 33.0346 273.956 33.119C274.116 33.2035 274.303 33.2211 274.476 33.1681C274.649 33.115 274.794 32.9956 274.879 32.8361C277.004 28.8357 279.316 25.8418 281.564 24.178C281.709 24.0703 281.806 23.9096 281.832 23.731C281.858 23.5525 281.813 23.3708 281.705 23.2259C281.597 23.0811 281.435 22.9849 281.256 22.9585C281.077 22.9322 280.895 22.9778 280.749 23.0854Z" fill="white"/>
</svg>
