<svg width="38" height="42" viewBox="0 0 38 42" fill="none" xmlns="http://www.w3.org/2000/svg">
<path d="M26.4106 3.1875V4.6875H27.9106H34.0237C34.2681 4.6875 34.5095 4.75409 34.7266 4.875H34.0237H27.9106H26.4106V6.375V8.0625H26.354V6.375V4.875H24.854H12.6278H11.1278V6.375V8.0625H11.0713V6.375V4.875H9.57127H3.45817H2.75523C2.97235 4.75409 3.21377 4.6875 3.45817 4.6875H9.57127H11.0713V3.1875V1.5H11.1278V3.1875V4.6875H12.6278H24.854H26.354V3.1875V1.5H26.4106V3.1875ZM35.5237 6.375V5.92191C35.5604 6.06441 35.5803 6.21603 35.5803 6.375V38.25C35.5803 38.409 35.5604 38.5606 35.5237 38.7031V38.25V15.9375V14.4375H34.0237H3.45817H1.95817V15.9375V38.25V38.7031C1.92149 38.5606 1.90161 38.409 1.90161 38.25V6.375C1.90161 6.21603 1.92149 6.06441 1.95817 5.9219V6.375V12.75V14.25H3.45817H34.0237H35.5237V12.75V6.375ZM34.0237 39.75H34.7266C34.5095 39.8709 34.2681 39.9375 34.0237 39.9375H3.45817C3.21377 39.9375 2.97235 39.8709 2.75523 39.75H3.45817H34.0237Z" fill="#0B238F"/>
<path d="M26.4106 3.1875V4.6875H27.9106H34.0237C34.2681 4.6875 34.5095 4.75409 34.7266 4.875H34.0237H27.9106H26.4106V6.375V8.0625H26.354V6.375V4.875H24.854H12.6278H11.1278V6.375V8.0625H11.0713V6.375V4.875H9.57127H3.45817H2.75523C2.97235 4.75409 3.21377 4.6875 3.45817 4.6875H9.57127H11.0713V3.1875V1.5H11.1278V3.1875V4.6875H12.6278H24.854H26.354V3.1875V1.5H26.4106V3.1875ZM35.5237 6.375V5.92191C35.5604 6.06441 35.5803 6.21603 35.5803 6.375V38.25C35.5803 38.409 35.5604 38.5606 35.5237 38.7031V38.25V15.9375V14.4375H34.0237H3.45817H1.95817V15.9375V38.25V38.7031C1.92149 38.5606 1.90161 38.409 1.90161 38.25V6.375C1.90161 6.21603 1.92149 6.06441 1.95817 5.9219V6.375V12.75V14.25H3.45817H34.0237H35.5237V12.75V6.375ZM34.0237 39.75H34.7266C34.5095 39.8709 34.2681 39.9375 34.0237 39.9375H3.45817C3.21377 39.9375 2.97235 39.8709 2.75523 39.75H3.45817H34.0237Z" fill="black" fill-opacity="0.2"/>
<path d="M26.4106 3.1875V4.6875H27.9106H34.0237C34.2681 4.6875 34.5095 4.75409 34.7266 4.875H34.0237H27.9106H26.4106V6.375V8.0625H26.354V6.375V4.875H24.854H12.6278H11.1278V6.375V8.0625H11.0713V6.375V4.875H9.57127H3.45817H2.75523C2.97235 4.75409 3.21377 4.6875 3.45817 4.6875H9.57127H11.0713V3.1875V1.5H11.1278V3.1875V4.6875H12.6278H24.854H26.354V3.1875V1.5H26.4106V3.1875ZM35.5237 6.375V5.92191C35.5604 6.06441 35.5803 6.21603 35.5803 6.375V38.25C35.5803 38.409 35.5604 38.5606 35.5237 38.7031V38.25V15.9375V14.4375H34.0237H3.45817H1.95817V15.9375V38.25V38.7031C1.92149 38.5606 1.90161 38.409 1.90161 38.25V6.375C1.90161 6.21603 1.92149 6.06441 1.95817 5.9219V6.375V12.75V14.25H3.45817H34.0237H35.5237V12.75V6.375ZM34.0237 39.75H34.7266C34.5095 39.8709 34.2681 39.9375 34.0237 39.9375H3.45817C3.21377 39.9375 2.97235 39.8709 2.75523 39.75H3.45817H34.0237Z" stroke="#0B238F" stroke-width="3"/>
<path d="M26.4106 3.1875V4.6875H27.9106H34.0237C34.2681 4.6875 34.5095 4.75409 34.7266 4.875H34.0237H27.9106H26.4106V6.375V8.0625H26.354V6.375V4.875H24.854H12.6278H11.1278V6.375V8.0625H11.0713V6.375V4.875H9.57127H3.45817H2.75523C2.97235 4.75409 3.21377 4.6875 3.45817 4.6875H9.57127H11.0713V3.1875V1.5H11.1278V3.1875V4.6875H12.6278H24.854H26.354V3.1875V1.5H26.4106V3.1875ZM35.5237 6.375V5.92191C35.5604 6.06441 35.5803 6.21603 35.5803 6.375V38.25C35.5803 38.409 35.5604 38.5606 35.5237 38.7031V38.25V15.9375V14.4375H34.0237H3.45817H1.95817V15.9375V38.25V38.7031C1.92149 38.5606 1.90161 38.409 1.90161 38.25V6.375C1.90161 6.21603 1.92149 6.06441 1.95817 5.9219V6.375V12.75V14.25H3.45817H34.0237H35.5237V12.75V6.375ZM34.0237 39.75H34.7266C34.5095 39.8709 34.2681 39.9375 34.0237 39.9375H3.45817C3.21377 39.9375 2.97235 39.8709 2.75523 39.75H3.45817H34.0237Z" stroke="black" stroke-opacity="0.2" stroke-width="3"/>
</svg>
