<svg width="37" height="42" viewBox="0 0 37 42" fill="none" xmlns="http://www.w3.org/2000/svg">
<path d="M26.009 3.1875V4.6875H27.509H33.6221C33.8665 4.6875 34.1079 4.75409 34.325 4.875H33.6221H27.509H26.009V6.375V8.0625H25.9524V6.375V4.875H24.4524H12.2262H10.7262V6.375V8.0625H10.6697V6.375V4.875H9.16966H3.05655H2.35362C2.57074 4.75409 2.81216 4.6875 3.05655 4.6875H9.16966H10.6697V3.1875V1.5H10.7262V3.1875V4.6875H12.2262H24.4524H25.9524V3.1875V1.5H26.009V3.1875ZM35.1221 6.375V5.92191C35.1588 6.06441 35.1786 6.21603 35.1786 6.375V38.25C35.1786 38.409 35.1588 38.5606 35.1221 38.7031V38.25V15.9375V14.4375H33.6221H3.05655H1.55655V15.9375V38.25V38.7031C1.51988 38.5606 1.5 38.409 1.5 38.25V6.375C1.5 6.21603 1.51988 6.06441 1.55655 5.9219V6.375V12.75V14.25H3.05655H33.6221H35.1221V12.75V6.375ZM33.6221 39.75H34.325C34.1079 39.8709 33.8665 39.9375 33.6221 39.9375H3.05655C2.81216 39.9375 2.57074 39.8709 2.35362 39.75H3.05655H33.6221Z" fill="white" stroke="white" stroke-width="3"/>
</svg>
