<svg width="89" height="89" viewBox="0 0 89 89" fill="none" xmlns="http://www.w3.org/2000/svg">
<path d="M57.8499 58.473L63.0564 32.04C66.5719 30.1265 68.9749 26.4775 68.9749 22.25C68.9749 19.2995 67.8028 16.4698 65.7165 14.3834C63.6301 12.2971 60.8004 11.125 57.8499 11.125C54.8994 11.125 52.0697 12.2971 49.9833 14.3834C47.897 16.4698 46.7249 19.2995 46.7249 22.25C46.7249 26.4775 49.1279 30.1265 52.6434 32.04L57.8499 58.473ZM57.8499 15.575C61.5434 15.575 64.5249 18.5565 64.5249 22.25C64.5249 25.9435 61.5434 28.925 57.8499 28.925C54.1564 28.925 51.1749 25.9435 51.1749 22.25C51.1749 18.5565 54.1564 15.575 57.8499 15.575ZM65.5039 36.935L80.0999 31.0165V71.0665L58.3839 80.1L31.1499 71.0665L8.8999 79.9665V39.9165L31.1499 31.0165L50.1514 37.291L57.8499 69.776L65.5039 36.935Z" fill="#0B238F"/>
<path d="M57.8499 58.473L63.0564 32.04C66.5719 30.1265 68.9749 26.4775 68.9749 22.25C68.9749 19.2995 67.8028 16.4698 65.7165 14.3834C63.6301 12.2971 60.8004 11.125 57.8499 11.125C54.8994 11.125 52.0697 12.2971 49.9833 14.3834C47.897 16.4698 46.7249 19.2995 46.7249 22.25C46.7249 26.4775 49.1279 30.1265 52.6434 32.04L57.8499 58.473ZM57.8499 15.575C61.5434 15.575 64.5249 18.5565 64.5249 22.25C64.5249 25.9435 61.5434 28.925 57.8499 28.925C54.1564 28.925 51.1749 25.9435 51.1749 22.25C51.1749 18.5565 54.1564 15.575 57.8499 15.575ZM65.5039 36.935L80.0999 31.0165V71.0665L58.3839 80.1L31.1499 71.0665L8.8999 79.9665V39.9165L31.1499 31.0165L50.1514 37.291L57.8499 69.776L65.5039 36.935Z" fill="black" fill-opacity="0.2"/>
</svg>
