<svg width="35" height="35" viewBox="0 0 35 35" fill="none" xmlns="http://www.w3.org/2000/svg">
<path d="M20.2834 9.56203C20.4668 9.16817 20.5766 8.73398 20.5766 8.27148C20.5766 6.57532 19.1969 5.19531 17.5004 5.19531C15.8043 5.19531 14.4242 6.57532 14.4242 8.27148C14.4242 8.73398 14.534 9.16817 14.7177 9.56203C7.89085 10.8163 2.6408 16.5852 2.17163 23.6523H32.8295C32.36 16.5852 27.1103 10.8163 20.2834 9.56203ZM17.5004 9.29688C16.9349 9.29688 16.475 8.83732 16.475 8.27148C16.475 7.70565 16.9349 7.24609 17.5004 7.24609C18.0663 7.24609 18.5258 7.70565 18.5258 8.27148C18.5258 8.83732 18.0663 9.29688 17.5004 9.29688Z" fill="#EDC43B"/>
<path d="M0 25.7031C0.476379 28.0404 2.72022 29.8047 5.19585 29.8047H29.8052C32.2811 29.8047 34.5236 28.0404 35 25.7031H0Z" fill="#EDC43B"/>
</svg>
