<svg width="30" height="33" viewBox="0 0 30 33" fill="none" xmlns="http://www.w3.org/2000/svg">
<path d="M8.10722 17.4229C10.3502 17.4229 12.1608 14.5046 12.1608 10.8893C12.1608 7.27407 10.3502 4.35573 8.10722 4.35573C5.86422 4.35573 4.05361 7.27407 4.05361 10.8893C4.05361 14.5046 5.86422 17.4229 8.10722 17.4229ZM24.3217 4.35573H16.2144C14.7281 4.35573 13.512 6.31581 13.512 8.71146V19.6008H2.70241V2.17786C2.70241 0.980039 2.09437 0 1.3512 0C0.608042 0 0 0.980039 0 2.17786V30.4901C0 31.6879 0.608042 32.668 1.3512 32.668C2.09437 32.668 2.70241 31.6879 2.70241 30.4901V26.1344H27.0241V30.4901C27.0241 31.6879 27.6321 32.668 28.3753 32.668C29.1184 32.668 29.7265 31.6879 29.7265 30.4901V13.0672C29.7265 8.25411 27.3078 4.35573 24.3217 4.35573Z" fill="#EDC43B"/>
</svg>
