<svg width="67" height="68" viewBox="0 0 67 68" fill="none" xmlns="http://www.w3.org/2000/svg">
<path d="M63.0742 8.63281H12.5625C10.3942 8.63281 8.63672 10.4165 8.63672 12.6172V19.125H16.8809V16.8672C16.8809 15.7675 17.7602 14.875 18.8438 14.875H33.5C34.5835 14.875 35.4629 15.7675 35.4629 16.8672V19.125H67V12.6172C67 10.4165 65.2426 8.63281 63.0742 8.63281Z" fill="#0B238F"/>
<path d="M63.0742 8.63281H12.5625C10.3942 8.63281 8.63672 10.4165 8.63672 12.6172V19.125H16.8809V16.8672C16.8809 15.7675 17.7602 14.875 18.8438 14.875H33.5C34.5835 14.875 35.4629 15.7675 35.4629 16.8672V19.125H67V12.6172C67 10.4165 65.2426 8.63281 63.0742 8.63281Z" fill="black" fill-opacity="0.2"/>
<path d="M35.4629 25.3672C35.4629 26.4669 34.5835 27.3594 33.5 27.3594H18.8438C17.7602 27.3594 16.8809 26.4669 16.8809 25.3672V23.1094H8.63672V48.875C8.63672 51.0757 10.3942 52.8594 12.5625 52.8594H34.0797C33.6837 50.4407 33.7617 49.1206 33.7617 44.4922H29.8359C28.7524 44.4922 27.873 43.5997 27.873 42.5C27.873 41.4003 28.7524 40.5078 29.8359 40.5078H33.7617V39.2594C33.7617 35.9643 36.4038 33.2828 39.6504 33.2828C42.8352 33.2828 45.993 32.1631 48.575 29.9559C50.7546 28.1116 53.9329 28.1114 56.1138 29.9572C58.8095 32.2119 61.8716 33.2828 65.0371 33.2828C65.7254 33.2828 66.3863 33.4037 67 33.6255V23.1094H35.4629V25.3672ZM21.4609 44.4922H17.2734C16.1899 44.4922 15.3105 43.5997 15.3105 42.5C15.3105 41.4003 16.1899 40.5078 17.2734 40.5078H21.4609C22.5445 40.5078 23.4238 41.4003 23.4238 42.5C23.4238 43.5997 22.5445 44.4922 21.4609 44.4922Z" fill="#0B238F"/>
<path d="M35.4629 25.3672C35.4629 26.4669 34.5835 27.3594 33.5 27.3594H18.8438C17.7602 27.3594 16.8809 26.4669 16.8809 25.3672V23.1094H8.63672V48.875C8.63672 51.0757 10.3942 52.8594 12.5625 52.8594H34.0797C33.6837 50.4407 33.7617 49.1206 33.7617 44.4922H29.8359C28.7524 44.4922 27.873 43.5997 27.873 42.5C27.873 41.4003 28.7524 40.5078 29.8359 40.5078H33.7617V39.2594C33.7617 35.9643 36.4038 33.2828 39.6504 33.2828C42.8352 33.2828 45.993 32.1631 48.575 29.9559C50.7546 28.1116 53.9329 28.1114 56.1138 29.9572C58.8095 32.2119 61.8716 33.2828 65.0371 33.2828C65.7254 33.2828 66.3863 33.4037 67 33.6255V23.1094H35.4629V25.3672ZM21.4609 44.4922H17.2734C16.1899 44.4922 15.3105 43.5997 15.3105 42.5C15.3105 41.4003 16.1899 40.5078 17.2734 40.5078H21.4609C22.5445 40.5078 23.4238 41.4003 23.4238 42.5C23.4238 43.5997 22.5445 44.4922 21.4609 44.4922Z" fill="black" fill-opacity="0.2"/>
<path d="M20.8066 18.8594H31.5371V23.375H20.8066V18.8594Z" fill="#0B238F"/>
<path d="M20.8066 18.8594H31.5371V23.375H20.8066V18.8594Z" fill="black" fill-opacity="0.2"/>
<path d="M65.0371 37.2672C61.0166 37.2672 57.04 35.911 53.6 33.0172C52.8724 32.4023 51.8151 32.4023 51.0875 33.0172C47.643 35.9145 43.6667 37.2672 39.6504 37.2672C38.5656 37.2672 37.6875 38.1597 37.6875 39.2594V48.9281C37.6875 57.7486 43.4478 65.5005 51.8046 67.923C52.1612 68.0256 52.526 68.0256 52.8829 67.923C61.2383 65.5005 67 57.7482 67 48.9281V39.2594C67 38.1616 66.1208 37.2672 65.0371 37.2672ZM61.8454 46.5123L53.7322 54.7466C52.97 55.5203 51.7249 55.5279 50.9553 54.7466L46.7678 50.4966C46.001 49.7184 46.001 48.4566 46.7678 47.6784C47.5347 46.9014 48.7778 46.9014 49.5447 47.6784L52.3438 50.5206L59.0686 43.694C59.8355 42.917 61.0786 42.917 61.8454 43.694C62.611 44.4723 62.611 45.734 61.8454 46.5123Z" fill="#0B238F"/>
<path d="M65.0371 37.2672C61.0166 37.2672 57.04 35.911 53.6 33.0172C52.8724 32.4023 51.8151 32.4023 51.0875 33.0172C47.643 35.9145 43.6667 37.2672 39.6504 37.2672C38.5656 37.2672 37.6875 38.1597 37.6875 39.2594V48.9281C37.6875 57.7486 43.4478 65.5005 51.8046 67.923C52.1612 68.0256 52.526 68.0256 52.8829 67.923C61.2383 65.5005 67 57.7482 67 48.9281V39.2594C67 38.1616 66.1208 37.2672 65.0371 37.2672ZM61.8454 46.5123L53.7322 54.7466C52.97 55.5203 51.7249 55.5279 50.9553 54.7466L46.7678 50.4966C46.001 49.7184 46.001 48.4566 46.7678 47.6784C47.5347 46.9014 48.7778 46.9014 49.5447 47.6784L52.3438 50.5206L59.0686 43.694C59.8355 42.917 61.0786 42.917 61.8454 43.694C62.611 44.4723 62.611 45.734 61.8454 46.5123Z" fill="black" fill-opacity="0.2"/>
</svg>
