<svg width="29" height="29" viewBox="0 0 29 29" fill="none" xmlns="http://www.w3.org/2000/svg">
<g clip-path="url(#clip0)">
<path d="M14.468 0.886963C6.91726 0.886963 0.794922 7.0085 0.794922 14.56C0.794922 22.1115 6.91726 28.2331 14.468 28.2331C22.0203 28.2331 28.141 22.1115 28.141 14.56C28.141 7.0085 22.0203 0.886963 14.468 0.886963ZM19.514 10.0066C20.5951 10.0066 21.4726 10.8841 21.4726 11.9651C21.4726 13.0462 20.5943 13.9237 19.514 13.9237C18.433 13.9237 17.5555 13.0462 17.5555 11.9651C17.5555 10.8841 18.433 10.0066 19.514 10.0066ZM9.42112 10.0066C10.503 10.0066 11.3797 10.8841 11.3797 11.9651C11.3797 13.0462 10.503 13.9237 9.42112 13.9237C8.34005 13.9237 7.46258 13.0462 7.46258 11.9651C7.46258 10.8841 8.34085 10.0066 9.42112 10.0066ZM21.8454 19.3139C20.1703 21.7459 17.4118 23.1974 14.468 23.1974C11.5226 23.1974 8.76322 21.7459 7.09052 19.3131C6.71526 18.7685 6.85338 18.0228 7.39871 17.6475C7.94404 17.2715 8.68897 17.4104 9.06423 17.9557C10.2906 19.7386 12.3114 20.8021 14.4688 20.8021C16.6261 20.8021 18.6453 19.7386 19.8749 17.9557C20.2502 17.412 20.9943 17.2739 21.5404 17.6483C22.0826 18.0236 22.2199 18.7685 21.8454 19.3139Z" fill="#0B238F"/>
<path d="M14.468 0.886963C6.91726 0.886963 0.794922 7.0085 0.794922 14.56C0.794922 22.1115 6.91726 28.2331 14.468 28.2331C22.0203 28.2331 28.141 22.1115 28.141 14.56C28.141 7.0085 22.0203 0.886963 14.468 0.886963ZM19.514 10.0066C20.5951 10.0066 21.4726 10.8841 21.4726 11.9651C21.4726 13.0462 20.5943 13.9237 19.514 13.9237C18.433 13.9237 17.5555 13.0462 17.5555 11.9651C17.5555 10.8841 18.433 10.0066 19.514 10.0066ZM9.42112 10.0066C10.503 10.0066 11.3797 10.8841 11.3797 11.9651C11.3797 13.0462 10.503 13.9237 9.42112 13.9237C8.34005 13.9237 7.46258 13.0462 7.46258 11.9651C7.46258 10.8841 8.34085 10.0066 9.42112 10.0066ZM21.8454 19.3139C20.1703 21.7459 17.4118 23.1974 14.468 23.1974C11.5226 23.1974 8.76322 21.7459 7.09052 19.3131C6.71526 18.7685 6.85338 18.0228 7.39871 17.6475C7.94404 17.2715 8.68897 17.4104 9.06423 17.9557C10.2906 19.7386 12.3114 20.8021 14.4688 20.8021C16.6261 20.8021 18.6453 19.7386 19.8749 17.9557C20.2502 17.412 20.9943 17.2739 21.5404 17.6483C22.0826 18.0236 22.2199 18.7685 21.8454 19.3139Z" fill="black" fill-opacity="0.2"/>
</g>
<defs>
<clipPath id="clip0">
<rect width="27.3461" height="27.3461" fill="white" transform="translate(0.794922 0.886963)"/>
</clipPath>
</defs>
</svg>
