<svg width="64" height="61" viewBox="0 0 64 61" fill="none" xmlns="http://www.w3.org/2000/svg">
<path d="M63.9488 46.5751C63.8471 46.199 63.601 45.879 63.2651 45.6854C52.3044 39.3735 38.6788 41.9067 30.5927 51.0394C32.9447 38.0512 43.949 28.0636 57.3531 27.3668C57.1659 31.0795 56.2848 34.6602 54.7272 38.0311C54.3872 38.767 54.7043 39.6409 55.4355 39.9832C56.1666 40.3255 57.0348 40.0064 57.375 39.2703C59.3231 35.0542 60.3109 30.5419 60.3109 25.8585C60.3109 25.0468 59.6573 24.389 58.8509 24.389C41.4145 24.389 27.2266 38.6576 27.2075 56.2025C27.2057 56.2787 27.2099 56.3559 27.2204 56.4333C27.2428 56.6023 27.2938 56.7623 27.3682 56.908C27.4704 57.1089 27.6154 57.2792 27.7884 57.4103C27.8452 57.4534 27.905 57.4925 27.9676 57.5269C32.0671 59.8818 36.5363 61 40.9505 61C50.0758 61 58.9589 56.2168 63.8069 47.6903C63.9996 47.3522 64.0504 46.9511 63.9488 46.5751ZM32.8828 56.6057L42.1831 54.0587C42.9611 53.8456 43.4202 53.0381 43.2085 52.2551C42.9966 51.4722 42.1951 51.0095 41.4163 51.223L32.116 53.7701C38.8937 45.4078 50.6796 42.6877 60.4818 47.5245C54.4657 56.6933 42.9361 60.3585 32.8828 56.6057ZM24.2949 42.1467C23.2601 42.2183 22.229 42.3227 21.2058 42.4582C20.5419 39.4875 20.1052 36.1945 19.9187 32.7266C23.0596 32.99 26.2516 33.124 29.4588 33.124C29.7454 33.124 30.0316 33.1229 30.3168 33.1206C31.1232 33.1144 31.7717 32.4515 31.7656 31.64C31.7594 30.8286 31.1026 30.169 30.2945 30.1819C30.0168 30.184 29.7379 30.1851 29.4588 30.1851C26.2161 30.1851 22.99 30.0447 19.8214 29.7693C19.8176 29.465 19.8157 29.16 19.8157 28.8538C19.8157 25.0983 20.0979 21.6218 20.5857 18.5155C22.9697 18.8279 25.4068 18.9867 27.8713 18.9867C30.8589 18.9867 33.8318 18.7591 36.7148 18.3196C37.0439 20.3667 37.2851 22.5891 37.4151 24.9714C37.4592 25.7817 38.1511 26.4038 38.9528 26.3581C39.758 26.3137 40.3748 25.6206 40.3305 24.8103C40.1985 22.3882 39.9457 20.0349 39.5841 17.806C43.3378 17.0321 46.8851 15.8903 50.0443 14.4181C50.0479 14.4165 50.0515 14.4147 50.0551 14.413C51.263 16.2227 52.2559 18.2056 52.9909 20.3308C53.2562 21.0972 54.0882 21.5019 54.8498 21.2356C55.6113 20.9688 56.0138 20.1311 55.7487 19.3649C51.7435 7.78262 40.8626 0.000979623 28.671 0H28.6676C12.8603 0 0 12.9438 0 28.8538C0 35.4181 2.13419 41.6031 6.17172 46.7404C10.0879 51.7231 15.5981 55.3117 21.6875 56.8451C21.8065 56.8751 21.9257 56.8893 22.043 56.8893C22.6971 56.8893 23.2922 56.4438 23.4582 55.7763C23.654 54.989 23.1784 54.1911 22.3963 53.9941C18.138 52.9219 14.3563 50.8219 11.2848 47.9957C13.7282 47.0371 16.3394 46.2924 19.038 45.7814C19.3658 46.9274 19.7292 48.0171 20.1267 49.0412C20.42 49.7972 21.2664 50.1706 22.0177 49.8754C22.7688 49.5802 23.1398 48.7281 22.8465 47.9722C22.522 47.1362 22.2219 46.2523 21.9469 45.3255C22.7918 45.2202 23.6422 45.1378 24.4956 45.0785C25.2999 45.0227 25.9071 44.3211 25.8516 43.5114C25.7965 42.7019 25.1012 42.0903 24.2949 42.1467ZM48.2429 12.0128C45.4767 13.2424 42.343 14.2194 39.0371 14.9038C38.4499 12.193 37.691 9.7288 36.7842 7.62767C36.0706 5.97391 35.3244 4.66317 34.5718 3.62885C39.9193 4.89746 44.7063 7.85642 48.2429 12.0128ZM28.6678 2.93887C31.3477 2.93887 34.4352 7.53347 36.1658 15.4178C33.4429 15.8309 30.6444 16.0477 27.8714 16.0477C25.587 16.0477 23.3291 15.9042 21.1207 15.6221C22.8014 7.78229 25.8435 2.93887 28.6678 2.93887ZM7.03992 14.8054C10.3582 16.2658 13.9497 17.3578 17.707 18.059C17.1747 21.4397 16.8957 25.0932 16.8957 28.8538C16.8957 29.0612 16.8965 29.2685 16.8983 29.4749C12.048 28.9191 7.36485 28.0425 2.99509 26.864C3.33024 22.4451 4.77174 18.331 7.03992 14.8054ZM9.09641 45.7189C5.4216 41.3955 3.1737 35.866 2.94026 29.8885C7.37086 31.0431 12.098 31.9 16.981 32.4409C17.1593 36.162 17.6145 39.7121 18.3203 42.9274C15.0895 43.5523 11.9736 44.4929 9.09641 45.7189ZM18.2376 15.1698C14.9275 14.552 11.7581 13.6138 8.81236 12.3723C12.3412 8.07357 17.2185 4.93518 22.7861 3.62101C21.7563 5.02351 20.8213 6.81655 20.0107 8.96927C19.3055 10.842 18.7116 12.9274 18.2376 15.1698Z" fill="#0B238F"/>
<path d="M63.9488 46.5751C63.8471 46.199 63.601 45.879 63.2651 45.6854C52.3044 39.3735 38.6788 41.9067 30.5927 51.0394C32.9447 38.0512 43.949 28.0636 57.3531 27.3668C57.1659 31.0795 56.2848 34.6602 54.7272 38.0311C54.3872 38.767 54.7043 39.6409 55.4355 39.9832C56.1666 40.3255 57.0348 40.0064 57.375 39.2703C59.3231 35.0542 60.3109 30.5419 60.3109 25.8585C60.3109 25.0468 59.6573 24.389 58.8509 24.389C41.4145 24.389 27.2266 38.6576 27.2075 56.2025C27.2057 56.2787 27.2099 56.3559 27.2204 56.4333C27.2428 56.6023 27.2938 56.7623 27.3682 56.908C27.4704 57.1089 27.6154 57.2792 27.7884 57.4103C27.8452 57.4534 27.905 57.4925 27.9676 57.5269C32.0671 59.8818 36.5363 61 40.9505 61C50.0758 61 58.9589 56.2168 63.8069 47.6903C63.9996 47.3522 64.0504 46.9511 63.9488 46.5751ZM32.8828 56.6057L42.1831 54.0587C42.9611 53.8456 43.4202 53.0381 43.2085 52.2551C42.9966 51.4722 42.1951 51.0095 41.4163 51.223L32.116 53.7701C38.8937 45.4078 50.6796 42.6877 60.4818 47.5245C54.4657 56.6933 42.9361 60.3585 32.8828 56.6057ZM24.2949 42.1467C23.2601 42.2183 22.229 42.3227 21.2058 42.4582C20.5419 39.4875 20.1052 36.1945 19.9187 32.7266C23.0596 32.99 26.2516 33.124 29.4588 33.124C29.7454 33.124 30.0316 33.1229 30.3168 33.1206C31.1232 33.1144 31.7717 32.4515 31.7656 31.64C31.7594 30.8286 31.1026 30.169 30.2945 30.1819C30.0168 30.184 29.7379 30.1851 29.4588 30.1851C26.2161 30.1851 22.99 30.0447 19.8214 29.7693C19.8176 29.465 19.8157 29.16 19.8157 28.8538C19.8157 25.0983 20.0979 21.6218 20.5857 18.5155C22.9697 18.8279 25.4068 18.9867 27.8713 18.9867C30.8589 18.9867 33.8318 18.7591 36.7148 18.3196C37.0439 20.3667 37.2851 22.5891 37.4151 24.9714C37.4592 25.7817 38.1511 26.4038 38.9528 26.3581C39.758 26.3137 40.3748 25.6206 40.3305 24.8103C40.1985 22.3882 39.9457 20.0349 39.5841 17.806C43.3378 17.0321 46.8851 15.8903 50.0443 14.4181C50.0479 14.4165 50.0515 14.4147 50.0551 14.413C51.263 16.2227 52.2559 18.2056 52.9909 20.3308C53.2562 21.0972 54.0882 21.5019 54.8498 21.2356C55.6113 20.9688 56.0138 20.1311 55.7487 19.3649C51.7435 7.78262 40.8626 0.000979623 28.671 0H28.6676C12.8603 0 0 12.9438 0 28.8538C0 35.4181 2.13419 41.6031 6.17172 46.7404C10.0879 51.7231 15.5981 55.3117 21.6875 56.8451C21.8065 56.8751 21.9257 56.8893 22.043 56.8893C22.6971 56.8893 23.2922 56.4438 23.4582 55.7763C23.654 54.989 23.1784 54.1911 22.3963 53.9941C18.138 52.9219 14.3563 50.8219 11.2848 47.9957C13.7282 47.0371 16.3394 46.2924 19.038 45.7814C19.3658 46.9274 19.7292 48.0171 20.1267 49.0412C20.42 49.7972 21.2664 50.1706 22.0177 49.8754C22.7688 49.5802 23.1398 48.7281 22.8465 47.9722C22.522 47.1362 22.2219 46.2523 21.9469 45.3255C22.7918 45.2202 23.6422 45.1378 24.4956 45.0785C25.2999 45.0227 25.9071 44.3211 25.8516 43.5114C25.7965 42.7019 25.1012 42.0903 24.2949 42.1467ZM48.2429 12.0128C45.4767 13.2424 42.343 14.2194 39.0371 14.9038C38.4499 12.193 37.691 9.7288 36.7842 7.62767C36.0706 5.97391 35.3244 4.66317 34.5718 3.62885C39.9193 4.89746 44.7063 7.85642 48.2429 12.0128ZM28.6678 2.93887C31.3477 2.93887 34.4352 7.53347 36.1658 15.4178C33.4429 15.8309 30.6444 16.0477 27.8714 16.0477C25.587 16.0477 23.3291 15.9042 21.1207 15.6221C22.8014 7.78229 25.8435 2.93887 28.6678 2.93887ZM7.03992 14.8054C10.3582 16.2658 13.9497 17.3578 17.707 18.059C17.1747 21.4397 16.8957 25.0932 16.8957 28.8538C16.8957 29.0612 16.8965 29.2685 16.8983 29.4749C12.048 28.9191 7.36485 28.0425 2.99509 26.864C3.33024 22.4451 4.77174 18.331 7.03992 14.8054ZM9.09641 45.7189C5.4216 41.3955 3.1737 35.866 2.94026 29.8885C7.37086 31.0431 12.098 31.9 16.981 32.4409C17.1593 36.162 17.6145 39.7121 18.3203 42.9274C15.0895 43.5523 11.9736 44.4929 9.09641 45.7189ZM18.2376 15.1698C14.9275 14.552 11.7581 13.6138 8.81236 12.3723C12.3412 8.07357 17.2185 4.93518 22.7861 3.62101C21.7563 5.02351 20.8213 6.81655 20.0107 8.96927C19.3055 10.842 18.7116 12.9274 18.2376 15.1698Z" fill="black" fill-opacity="0.2"/>
</svg>
